<svg width="445" height="444" viewBox="0 0 445 444" fill="none" xmlns="http://www.w3.org/2000/svg">
<path d="M65.0755 412.942C151.977 454.353 292.798 454.353 379.699 412.942C466.6 371.531 466.491 304.451 379.699 263.04C292.906 221.629 152.02 221.64 65.1623 263.04C-21.6954 304.44 -21.7171 371.553 65.0755 412.942Z" fill="white" fill-opacity="0.1"/>
<path d="M345.07 105.154L349.062 102.083V93.2955C349.062 86.3412 354.606 78.2587 360.638 74.7761C366.67 71.2935 371.563 74.1143 371.563 81.0794V82.3487C372.831 80.2897 374.562 78.5549 376.619 77.2822C380.958 74.7761 384.484 76.8049 384.484 81.8171V82.403L392.469 77.7921C395.322 76.1431 397.644 77.4775 397.644 80.7756C397.546 82.5708 397.026 84.3176 396.127 85.8745C395.228 87.4315 393.975 88.7547 392.469 89.737L345.07 117.098C342.216 118.747 339.895 117.413 339.895 114.115C339.993 112.32 340.512 110.573 341.411 109.016C342.311 107.459 343.564 106.136 345.07 105.154Z" fill="#EBEBEB"/>
<path d="M58.6629 343.985C58.0988 343.888 57.5021 343.714 56.8295 343.54C54.5625 342.932 52.3282 342.208 50.1356 341.371C45.7623 339.784 41.6378 337.581 37.887 334.829C35.8299 333.366 34.07 331.525 32.7011 329.404C31.3329 327.257 30.8471 324.664 31.345 322.168C31.6206 320.935 32.2431 319.808 33.1389 318.917C34.0347 318.027 35.1665 317.412 36.4006 317.145C37.5615 316.96 38.7657 317.145 39.9266 316.938C40.521 316.891 41.0846 316.655 41.5354 316.264C41.9862 315.874 42.3006 315.35 42.4327 314.769C42.4374 314.103 42.2571 313.45 41.912 312.881C39.8041 309.02 37.9908 305.005 36.4874 300.871C35.229 297.182 35.1531 293.192 36.2704 289.458C37.2192 285.742 39.2509 282.393 42.1073 279.835C43.4091 278.75 45.2101 277.817 46.7832 278.5C47.2834 278.755 47.7227 279.114 48.0709 279.554C48.4192 279.994 48.6683 280.504 48.8011 281.05C49.044 282.14 49.1676 283.253 49.17 284.37C49.3249 286.772 49.7843 289.145 50.537 291.432C50.8739 292.861 51.694 294.13 52.8587 295.023C54.8766 296.282 57.654 295.295 59.8021 296.314C61.9502 297.334 62.688 299.678 62.7856 301.891C62.8832 304.104 62.4384 306.339 62.688 308.541C62.7316 309.236 62.952 309.908 63.3281 310.494C63.9253 311.134 64.6168 311.679 65.3785 312.111C66.3793 312.938 67.1816 313.98 67.7261 315.16C68.2706 316.339 68.5435 317.625 68.5248 318.924C68.459 321.519 67.9641 324.085 67.0601 326.518C66.0641 329.92 65.3386 333.395 64.8903 336.912C64.5367 339.066 63.6239 341.09 62.2431 342.781C61.8336 343.315 61.2743 343.714 60.6366 343.929C59.999 344.143 59.3118 344.163 58.6629 343.985Z" fill="#73AFD9"/>
<path d="M62.2652 342.184C62.2013 342.183 62.1387 342.166 62.0835 342.134C62.0284 342.101 61.9826 342.055 61.9506 342C49.2897 320.649 45.2864 305.612 44.1473 296.748C42.8996 287.093 44.6572 282.569 44.7331 282.384C44.7509 282.338 44.7775 282.297 44.8114 282.262C44.8453 282.226 44.8859 282.198 44.9307 282.178C44.9755 282.159 45.0238 282.148 45.0727 282.147C45.1216 282.146 45.1703 282.155 45.2159 282.173C45.2615 282.19 45.3031 282.217 45.3384 282.251C45.3737 282.285 45.402 282.325 45.4217 282.37C45.4413 282.415 45.4519 282.463 45.4529 282.512C45.4539 282.561 45.4453 282.61 45.4274 282.655C45.4274 282.731 43.6699 287.277 44.8958 296.759C45.9808 305.536 50.0383 320.443 62.5907 341.631C62.6161 341.673 62.6328 341.719 62.64 341.768C62.6472 341.816 62.6447 341.866 62.6325 341.913C62.6204 341.961 62.599 342.005 62.5694 342.044C62.5399 342.083 62.5029 342.116 62.4605 342.141C62.3995 342.17 62.3328 342.185 62.2652 342.184Z" fill="white"/>
<path d="M55.4948 329.806C40.0674 328.113 35.7061 323.047 35.5216 322.83C35.4527 322.76 35.4141 322.667 35.4141 322.569C35.4141 322.472 35.4527 322.378 35.5216 322.309C35.5551 322.273 35.5955 322.245 35.6402 322.226C35.685 322.206 35.7333 322.197 35.782 322.197C35.8308 322.197 35.879 322.206 35.9238 322.226C35.9686 322.245 36.0089 322.273 36.0424 322.309C36.0424 322.363 40.4471 327.364 55.5165 329.024C55.6048 329.039 55.685 329.085 55.7428 329.154C55.8006 329.222 55.8323 329.309 55.8323 329.399C55.8323 329.488 55.8006 329.575 55.7428 329.644C55.685 329.712 55.6048 329.758 55.5165 329.773L55.4948 329.806Z" fill="white"/>
<path d="M51.1454 320.193C51.0633 320.193 50.9833 320.166 50.9176 320.117C50.8789 320.087 50.8465 320.05 50.8222 320.008C50.798 319.966 50.7823 319.919 50.7763 319.87C50.7702 319.822 50.7739 319.773 50.7869 319.726C50.8 319.679 50.8223 319.635 50.8525 319.596C55.7455 313.163 56.0601 302.618 56.0709 302.509C56.0708 302.46 56.0808 302.412 56.1001 302.367C56.1194 302.322 56.1478 302.281 56.1833 302.248C56.2189 302.214 56.261 302.188 56.307 302.172C56.3529 302.155 56.4018 302.148 56.4506 302.151C56.4995 302.151 56.5479 302.161 56.5929 302.18C56.6378 302.2 56.6782 302.228 56.7118 302.263C56.7453 302.299 56.7712 302.341 56.7879 302.387C56.8046 302.433 56.8116 302.482 56.8087 302.531C56.8087 302.976 56.4832 313.38 51.4492 320.041C51.4139 320.088 51.368 320.127 51.3153 320.153C51.2625 320.179 51.2044 320.193 51.1454 320.193Z" fill="white"/>
<path d="M367.328 278.044C368.825 267.955 368.847 255.641 361.437 237.653C354.027 219.666 356.327 210.238 364.269 207.666C372.21 205.095 389.807 218.754 389.156 241.722C388.516 263.897 373.534 282.21 373.534 282.21L367.328 278.044Z" fill="#73AFD9"/>
<path opacity="0.1" d="M367.328 278.044C368.825 267.955 368.847 255.641 361.437 237.653C354.027 219.666 356.327 210.238 364.269 207.666C372.21 205.095 389.807 218.754 389.156 241.722C388.516 263.897 373.534 282.21 373.534 282.21L367.328 278.044Z" fill="black"/>
<path d="M371.203 281.017C371.156 281.027 371.108 281.027 371.062 281.017C371.016 281 370.974 280.973 370.939 280.938C370.903 280.903 370.876 280.862 370.857 280.816C370.839 280.77 370.83 280.721 370.832 280.672C370.834 280.622 370.845 280.574 370.866 280.529C370.942 280.345 379.058 261.391 378.461 244.185C377.788 224.385 366.82 213.493 366.711 213.384C366.676 213.35 366.649 213.309 366.629 213.264C366.61 213.219 366.6 213.171 366.6 213.122C366.599 213.073 366.608 213.025 366.626 212.98C366.645 212.934 366.672 212.893 366.706 212.858C366.74 212.823 366.781 212.795 366.826 212.776C366.871 212.757 366.919 212.747 366.968 212.746C367.017 212.746 367.065 212.755 367.111 212.773C367.156 212.791 367.197 212.818 367.232 212.853C367.341 212.961 378.515 224.038 379.166 244.163C379.763 261.522 371.572 280.638 371.507 280.822C371.476 280.877 371.432 280.924 371.379 280.958C371.326 280.992 371.266 281.013 371.203 281.017Z" fill="white"/>
<path d="M367.764 286.995C367.764 286.995 371.951 262.606 386.815 248.589C401.678 234.572 426.457 231.903 434.225 239.389C441.993 246.875 437.013 254.155 426.067 256.683C413.699 259.536 406.115 264.527 413.699 268.345C420.74 271.882 419.948 279.553 412.614 283.23C400.897 289.111 379.741 283.512 374.642 295.078L367.764 286.995Z" fill="#73AFD9"/>
<path d="M370.91 292.159H370.791C370.698 292.125 370.623 292.056 370.58 291.966C370.537 291.877 370.531 291.775 370.563 291.682C373.989 282.145 379.269 273.38 386.099 265.893C391.452 260.104 397.719 255.233 404.651 251.475C411.537 247.674 419.034 245.104 426.805 243.881C426.904 243.871 427.002 243.901 427.079 243.964C427.156 244.027 427.206 244.118 427.217 244.217C427.223 244.265 427.219 244.315 427.206 244.362C427.193 244.409 427.171 244.453 427.14 244.491C427.11 244.529 427.072 244.561 427.03 244.585C426.987 244.609 426.94 244.624 426.891 244.629C419.2 245.864 411.783 248.434 404.976 252.223C394.127 258.114 379.405 269.799 371.236 291.985C371.2 292.039 371.151 292.083 371.095 292.113C371.038 292.143 370.974 292.159 370.91 292.159Z" fill="white"/>
<path d="M378.45 276.818C378.372 276.819 378.296 276.795 378.232 276.75C378.168 276.705 378.119 276.642 378.092 276.569C378.061 276.475 378.067 276.373 378.109 276.284C378.152 276.195 378.227 276.126 378.32 276.091C391.003 271.665 409.186 273.987 409.37 274.008C409.419 274.015 409.465 274.031 409.508 274.055C409.55 274.08 409.587 274.112 409.617 274.151C409.646 274.19 409.668 274.234 409.681 274.281C409.693 274.328 409.697 274.378 409.69 274.426C409.684 274.474 409.668 274.521 409.643 274.563C409.619 274.606 409.586 274.643 409.548 274.673C409.509 274.702 409.464 274.724 409.417 274.737C409.37 274.749 409.321 274.752 409.272 274.746C409.099 274.746 391.079 272.424 378.57 276.797C378.532 276.814 378.491 276.821 378.45 276.818Z" fill="white"/>
<path d="M74.2439 26.7143C74.1532 25.0387 73.6688 23.4081 72.8299 21.9548C71.9911 20.5015 70.8215 19.2664 69.416 18.3497L65.4778 16.0714C63.9818 15.3119 62.3277 14.916 60.65 14.916C58.9722 14.916 57.3181 15.3119 55.8221 16.0714L24.6744 34.0483C23.191 34.9804 21.9788 36.2862 21.1593 37.8346C20.4537 39.0649 20.0104 40.4279 19.8574 41.8379C19.8574 42.0332 19.8574 42.2285 19.8574 42.4238V78.3776C19.9493 80.0542 20.4354 81.6854 21.2761 83.1388C22.1169 84.5922 23.2886 85.8268 24.6961 86.7423L28.6235 89.0206L29.1225 89.281L29.307 89.3569L29.6433 89.4979L29.9037 89.5956L30.1857 89.6932L30.5004 89.78L30.739 89.8451L31.1079 89.9319H31.2924L31.7372 90.0078H31.824C34.0482 90.3725 36.3306 90.0111 38.3334 88.9772L69.416 71.0437C70.8238 70.1258 71.9954 68.8892 72.8361 67.4341C73.6768 65.9789 74.1628 64.3462 74.2547 62.6682L74.2439 26.7143Z" fill="#73AFD9"/>
<path opacity="0.4" d="M34.8497 45.5158C34.2919 46.4396 33.8751 47.4415 33.613 48.4884C34.2606 45.7768 35.9273 43.4186 38.2672 41.903L69.4149 23.9261C72.0838 22.3855 74.2536 23.6332 74.2536 26.7143C74.1617 25.0378 73.6756 23.4066 72.8349 21.9532C71.9941 20.4998 70.8224 19.2652 69.4149 18.3497L65.4767 16.0714C63.9807 15.3119 62.3266 14.916 60.6489 14.916C58.9711 14.916 57.317 15.3119 55.821 16.0714L24.6733 34.0483C23.1899 34.9804 21.9777 36.2862 21.1582 37.8346L21.2558 37.661L34.8497 45.5158Z" fill="white"/>
<path opacity="0.1" d="M37.2702 89.4761L37.0424 89.5412L36.6518 89.6171H36.2829H35.9032C35.4546 89.5841 35.0251 89.4221 34.6664 89.1506L34.4928 88.9879L34.3952 88.9011L34.265 88.7384L34.1565 88.5973L34.048 88.4237L33.9504 88.2501C33.9504 88.2501 33.9504 88.1308 33.8744 88.0657C33.8409 87.999 33.8119 87.9302 33.7876 87.8596L33.6141 87.686V87.469C33.6141 87.4039 33.6141 87.3388 33.6141 87.2737C33.6081 87.1689 33.6081 87.0639 33.6141 86.9591C33.6081 86.9014 33.6081 86.8432 33.6141 86.7855C33.6141 86.6228 33.6141 86.4492 33.6141 86.2648V50.2784C33.6147 49.8894 33.6473 49.5011 33.7117 49.1175C33.7117 48.9765 33.7117 48.8246 33.7985 48.6836V48.51C34.047 47.4655 34.4492 46.4637 34.9919 45.5373L21.257 37.6609L21.1593 37.8345C20.4537 39.0648 20.0104 40.4278 19.8574 41.8378C19.8574 42.0331 19.8574 42.2284 19.8574 42.4236V78.3775C19.9493 80.054 20.4354 81.6852 21.2761 83.1386C22.1169 84.592 23.2886 85.8266 24.6961 86.7421L28.6235 89.0204L29.1225 89.2808L29.307 89.3568L29.6433 89.4978L29.9037 89.5954L30.1857 89.6931L30.5004 89.7799L30.739 89.845L31.1079 89.9318H31.2924L31.7372 90.0077H31.824C33.6553 90.286 35.5272 90.1033 37.2702 89.4761Z" fill="black"/>
<path d="M60.6404 59.6845C62.7208 55.0372 63.786 49.9997 63.7649 44.9081C64.7813 43.3312 65.6355 41.6555 66.3144 39.9066C65.4386 40.9336 64.4526 41.8613 63.3743 42.6731C64.4686 41.1437 65.2333 39.4036 65.6201 37.5632C64.6812 38.8686 63.5884 40.0561 62.3654 41.1C61.8244 40.6976 61.1681 40.4802 60.4939 40.4802C59.8197 40.4802 59.1634 40.6976 58.6224 41.1C55.3677 43.0095 52.8941 48.5208 53.6427 52.3614C49.3899 54.5312 45.6144 53.9887 43.0974 51.2765C41.7521 55.117 42.403 58.7623 44.6814 59.4675C43.9842 59.8862 43.1664 60.0581 42.3597 59.9557C42.3597 63.2105 43.9979 65.1307 46.4606 64.3605C45.8078 65.0106 45.0184 65.5072 44.1498 65.8142C44.8007 68.1468 46.6884 69.069 48.9342 67.7996C47.186 70.9082 44.5387 73.4156 41.3398 74.9926C43.5965 75.6218 46.287 75.1987 49.1837 73.5279C54.2394 70.6095 58.1234 65.326 60.6078 59.6086" fill="white"/>
<path d="M74.2447 157.63C74.1474 155.962 73.6598 154.34 72.8213 152.895C71.9828 151.449 70.8167 150.221 69.4169 149.309L65.4787 147.03C63.9827 146.271 62.3286 145.875 60.6508 145.875C58.9731 145.875 57.319 146.271 55.823 147.03L24.6861 165.007C23.2028 165.939 21.9905 167.245 21.171 168.794C20.4654 170.024 20.0221 171.387 19.8691 172.797C19.8691 172.992 19.8691 173.187 19.8691 173.383V209.337C19.9641 211.003 20.4483 212.623 21.283 214.069C22.1177 215.514 23.2795 216.743 24.6753 217.658L28.6026 219.936L29.1017 220.186L29.2861 220.272L29.6225 220.414L29.8828 220.511L30.1649 220.609L30.4795 220.696L30.7182 220.761L31.0871 220.847H31.2715L31.7163 220.923H31.8031C34.0332 221.271 36.316 220.891 38.3126 219.839L69.4169 201.959C70.8246 201.041 71.9963 199.805 72.837 198.35C73.6776 196.894 74.1636 195.262 74.2556 193.584L74.2447 157.63Z" fill="#73AFD9"/>
<path opacity="0.4" d="M34.8506 176.431C34.3079 177.358 33.9057 178.36 33.6572 179.404C34.2942 176.699 35.9445 174.342 38.2681 172.819L69.4158 154.842C72.0847 153.301 74.2545 154.549 74.2545 157.63C74.1559 155.961 73.6667 154.338 72.8262 152.893C71.9858 151.448 70.8176 150.22 69.4158 149.309L65.4776 147.03C63.9816 146.271 62.3275 145.875 60.6497 145.875C58.972 145.875 57.3179 146.271 55.8219 147.03L24.685 165.007C23.2016 165.939 21.9894 167.245 21.1699 168.794L21.2676 168.62L34.8506 176.431Z" fill="white"/>
<path opacity="0.1" d="M37.2694 220.392L37.0415 220.457C36.9138 220.496 36.7832 220.525 36.651 220.544H36.2821H35.9024C35.4537 220.511 35.0242 220.349 34.6656 220.077L34.492 219.915L34.3944 219.828L34.2642 219.654L34.1557 219.524L34.0472 219.35L33.9495 219.177C33.9495 219.112 33.9495 219.057 33.8736 218.992C33.8382 218.923 33.8091 218.85 33.7868 218.775L33.7217 218.591L33.6566 218.331C33.6566 218.331 33.6566 218.211 33.6566 218.146C33.6506 218.041 33.6506 217.936 33.6566 217.832C33.6507 217.774 33.6507 217.716 33.6566 217.658C33.6566 217.495 33.6566 217.311 33.6566 217.126V181.194C33.6572 180.805 33.6899 180.417 33.7543 180.033C33.7543 179.881 33.7543 179.74 33.841 179.599V179.426C34.0896 178.381 34.4917 177.38 35.0344 176.453L21.4405 168.598L21.3429 168.772C20.6373 170.002 20.194 171.365 20.041 172.775C20.041 172.971 20.041 173.166 20.041 173.361V209.315C20.1131 210.97 20.5692 212.585 21.3732 214.033C22.1772 215.481 23.3071 216.722 24.6736 217.658L28.6009 219.936L29.1 220.186L29.2844 220.273L29.6208 220.414L29.8811 220.511L30.1632 220.609L30.4778 220.696L30.7165 220.761L31.0854 220.848H31.2698L31.7146 220.923H31.8014C33.6399 221.205 35.5197 221.023 37.2694 220.392Z" fill="black"/>
<path d="M53.8378 174.262C57.0275 172.417 57.4072 172.222 58.6657 171.571C59.3282 171.174 60.0679 170.922 60.8355 170.833C61.3261 170.784 61.8167 170.928 62.2025 171.235C62.6362 171.564 62.952 172.024 63.103 172.548C63.3825 173.428 63.5216 174.347 63.5152 175.271C63.5695 176.909 63.5803 177.441 63.5803 181.661C63.5803 185.881 63.5803 186.413 63.5152 188.17C63.4962 189.245 63.3579 190.315 63.103 191.36C62.9067 192.177 62.6039 192.965 62.2025 193.703C61.8426 194.426 61.3824 195.095 60.8355 195.689C60.1976 196.391 59.4677 197.004 58.6657 197.511C57.4072 198.314 57.0275 198.596 53.8378 200.386C50.6482 202.176 50.2793 202.437 49.0209 203.088C48.3575 203.482 47.6178 203.729 46.851 203.815C46.357 203.865 45.8628 203.721 45.4732 203.413C45.0458 203.08 44.7344 202.621 44.5836 202.1C44.3047 201.224 44.1655 200.308 44.1713 199.388C44.1713 197.739 44.0954 197.218 44.0954 192.998C44.0954 188.778 44.0954 188.235 44.1713 186.489C44.1874 185.392 44.3257 184.3 44.5836 183.234C44.7828 182.419 45.0816 181.632 45.4732 180.891C45.8422 180.17 46.3056 179.503 46.851 178.905C47.4865 178.2 48.2167 177.587 49.0209 177.083C50.2793 176.28 50.6591 175.998 53.8378 174.207M53.8378 171.343C50.5831 173.209 50.1926 173.513 48.9232 174.273C47.8515 174.943 46.8768 175.757 46.0265 176.692C45.1646 177.602 44.4343 178.628 43.8567 179.741C43.2517 180.884 42.789 182.097 42.4789 183.353C42.1412 184.725 41.9557 186.129 41.9256 187.541C41.9256 189.266 41.8496 189.819 41.8496 194.137C41.8496 198.455 41.8496 198.998 41.9256 200.647C41.9258 201.851 42.1124 203.047 42.4789 204.194C42.7192 204.993 43.2005 205.698 43.8567 206.212C44.4722 206.692 45.2504 206.914 46.0265 206.831C47.0475 206.73 48.0351 206.411 48.9232 205.898C50.1926 205.236 50.594 205.019 53.8378 203.153C57.0817 201.287 57.4831 200.983 58.7633 200.213C60.8959 198.894 62.6287 197.018 63.7756 194.788C64.3791 193.645 64.8382 192.432 65.1426 191.175C65.4845 189.808 65.6737 188.407 65.7067 186.999C65.7067 185.263 65.7718 184.709 65.7718 180.391C65.7718 176.074 65.7718 175.542 65.7067 173.882C65.7053 172.681 65.5149 171.487 65.1426 170.345C64.9039 169.546 64.4271 168.838 63.7756 168.316C63.1596 167.838 62.3807 167.62 61.6058 167.709C60.5837 167.805 59.5949 168.123 58.7091 168.642C57.4289 169.293 57.0275 169.51 53.7836 171.387M53.7836 179.122C50.3987 181.075 47.6539 186.315 47.6539 190.828C47.6539 195.342 50.3987 197.414 53.7836 195.461C57.1685 193.508 59.9133 188.268 59.9133 183.755C59.9133 179.241 57.1685 177.169 53.7836 179.122ZM53.7836 192.597C51.6138 193.866 49.8128 192.521 49.8128 189.591C49.8128 186.662 51.5921 183.256 53.7836 181.997C55.9751 180.739 57.7652 182.073 57.7652 185.013C57.7652 187.953 55.986 191.338 53.7836 192.608M61.5841 174.305C61.5841 173.22 60.944 172.765 60.152 173.22C59.7147 173.533 59.3573 173.945 59.1085 174.422C58.8597 174.899 58.7266 175.427 58.7199 175.965C58.7199 177.05 59.36 177.495 60.152 177.05C60.5878 176.738 60.9444 176.328 61.1931 175.853C61.4418 175.378 61.5757 174.852 61.5841 174.316" fill="white"/>
<path d="M128.445 73.9183C128.36 72.2464 127.883 70.6179 127.052 69.1648C126.221 67.7116 125.059 66.4745 123.661 65.5537L119.723 63.2753C118.225 62.5157 116.569 62.1199 114.89 62.1199C113.21 62.1199 111.554 62.5157 110.056 63.2753L78.9194 81.2523C77.6026 82.1258 76.491 83.2747 75.6613 84.6195C74.8315 85.9643 74.3034 87.4732 74.1133 89.0419C74.1133 89.2372 74.1133 89.4325 74.1133 89.6278V125.582C74.2031 127.257 74.6872 128.888 75.5261 130.342C76.365 131.795 77.535 133.03 78.9411 133.946L82.8793 136.225L83.3784 136.485L83.5628 136.561L83.8991 136.702L84.1487 136.8L84.4416 136.897L84.7454 136.984L84.9949 137.049L85.3638 137.136H85.5482L85.993 137.212H86.0798C88.304 137.576 90.5862 137.214 92.5893 136.181L123.661 118.248C125.067 117.329 126.237 116.092 127.076 114.637C127.915 113.182 128.399 111.549 128.489 109.872L128.445 73.9183Z" fill="#73AFD9"/>
<path opacity="0.4" d="M89.0642 92.7197C88.523 93.6481 88.1174 94.6491 87.8599 95.6924C88.4995 92.9861 90.154 90.6287 92.4816 89.107L123.662 71.1301C126.331 69.5895 128.49 70.8372 128.49 73.9183C128.4 72.2425 127.916 70.6116 127.077 69.1582C126.238 67.7047 125.068 66.4697 123.662 65.5537L119.724 63.2753C118.226 62.5157 116.57 62.1199 114.89 62.1199C113.211 62.1199 111.555 62.5157 110.057 63.2753L78.9203 81.2523C77.4425 82.1878 76.2346 83.493 75.416 85.0386L75.5028 84.865L89.0642 92.7197Z" fill="white"/>
<path opacity="0.1" d="M91.484 136.681L91.2453 136.746C91.1213 136.785 90.9943 136.814 90.8656 136.833H90.5076H90.0302C89.5852 136.798 89.1596 136.636 88.8042 136.366L88.6307 136.203L88.533 136.117L88.392 135.943L88.2943 135.813C88.2519 135.759 88.2155 135.701 88.1859 135.639L88.0882 135.466C88.0882 135.411 88.0882 135.346 88.0014 135.281L87.9255 135.075L87.8604 134.88C87.8604 134.8 87.8387 134.713 87.7953 134.619C87.7891 134.558 87.7891 134.496 87.7953 134.435C87.7893 134.33 87.7893 134.225 87.7953 134.12C87.7893 134.063 87.7893 134.004 87.7953 133.947C87.7842 133.773 87.7842 133.599 87.7953 133.426V97.483C87.8013 97.0943 87.8339 96.7064 87.8929 96.3221C87.8929 96.1703 87.8929 96.0292 87.9689 95.8882C87.9731 95.8304 87.9731 95.7724 87.9689 95.7146C88.2264 94.6713 88.6319 93.6703 89.1731 92.7419L75.5684 84.8872L75.4816 85.0608C74.7713 86.289 74.3277 87.653 74.1797 89.0641C74.1797 89.2594 74.1797 89.4547 74.1797 89.6499V125.604C74.2695 127.28 74.7536 128.91 75.5925 130.364C76.4314 131.817 77.6014 133.052 79.0075 133.968L82.9457 136.247L83.4448 136.507L83.6292 136.583L83.9656 136.724L84.2151 136.822L84.508 136.919L84.8118 137.006L85.0613 137.071L85.4302 137.158H85.6146L86.0594 137.234H86.1462C87.944 137.487 89.7764 137.297 91.484 136.681Z" fill="black"/>
<path d="M104.686 123.619L109.883 120.613V103.255L113.506 101.161L113.886 95.1289L109.883 97.4398V94.1308C109.883 92.7638 110.089 92.102 111.076 91.5379L113.886 89.9105V83.8784L110.295 85.9614C108.518 86.8979 107.046 88.3228 106.053 90.0682C105.059 91.8135 104.585 93.8065 104.686 95.8124V100.488L101.963 102.018V107.898L104.664 106.347L104.686 123.619Z" fill="white"/>
<path d="M58.0876 350.017L182.559 421.859C184.021 422.603 185.638 422.99 187.278 422.99C188.919 422.99 190.536 422.603 191.998 421.859L386.11 309.799C388.713 308.291 388.713 305.861 386.11 304.375L261.638 232.489C260.178 231.746 258.563 231.358 256.924 231.358C255.286 231.358 253.67 231.746 252.21 232.489L58.0876 344.592C55.4838 346.068 55.4838 348.498 58.0876 350.017Z" fill="#E0E0E0"/>
<path d="M62.0026 332.658L182.948 402.494C184.426 403.243 186.06 403.633 187.716 403.633C189.373 403.633 191.007 403.243 192.485 402.494L384.242 291.801C386.878 290.282 386.878 287.819 384.242 286.3L263.286 216.465C261.808 215.716 260.174 215.325 258.517 215.325C256.861 215.325 255.227 215.716 253.749 216.465L62.0026 327.234C59.3663 328.698 59.3663 331.161 62.0026 332.658Z" fill="#37474F"/>
<path d="M182.95 402.516L62.0041 332.658C59.6498 331.302 59.4003 329.187 61.2555 327.668C60.0766 328.602 59.1087 329.776 58.415 331.111C57.7214 332.446 57.3177 333.912 57.2305 335.414V339.895C57.3208 341.551 57.8 343.162 58.6294 344.599C59.4587 346.035 60.6149 347.256 62.0041 348.162L182.95 417.986C184.418 418.766 186.061 419.158 187.723 419.125V403.655C186.061 403.688 184.418 403.295 182.95 402.516Z" fill="#455A64"/>
<path d="M384.243 307.294C385.63 306.389 386.785 305.17 387.613 303.736C388.44 302.301 388.917 300.691 389.006 299.037V294.557C388.919 293.055 388.516 291.588 387.822 290.253C387.128 288.918 386.16 287.745 384.981 286.811C386.836 288.329 386.597 290.445 384.243 291.801L192.485 402.516C191.02 403.294 189.381 403.686 187.723 403.655V419.148C189.381 419.179 191.02 418.787 192.485 418.008L384.243 307.294Z" fill="#263238"/>
<path d="M126.915 364.913C128.967 365.956 131.236 366.5 133.538 366.5C135.84 366.5 138.109 365.956 140.161 364.913C143.818 362.743 143.818 359.38 140.161 357.264C138.108 356.227 135.839 355.686 133.538 355.686C131.237 355.686 128.968 356.227 126.915 357.264C123.302 359.38 123.302 362.808 126.915 364.913Z" fill="#263238"/>
<path d="M201.775 387.696L86.0041 320.811C84.4309 319.9 84.4309 318.413 86.0041 317.502L236.806 230.406C237.692 229.957 238.672 229.723 239.665 229.723C240.658 229.723 241.638 229.957 242.524 230.406L358.294 297.29C359.878 298.201 359.878 299.677 358.294 300.545L207.492 387.652C206.609 388.108 205.632 388.349 204.639 388.357C203.645 388.364 202.664 388.138 201.775 387.696Z" fill="white"/>
<path d="M315.016 256.292C315.536 256.554 316.11 256.691 316.692 256.691C317.275 256.691 317.849 256.554 318.369 256.292C318.549 256.202 318.701 256.063 318.807 255.892C318.913 255.72 318.969 255.523 318.969 255.321C318.969 255.119 318.913 254.921 318.807 254.75C318.701 254.578 318.549 254.44 318.369 254.35C317.849 254.088 317.275 253.951 316.692 253.951C316.11 253.951 315.536 254.088 315.016 254.35C314.083 254.881 314.083 255.749 315.016 256.292Z" fill="#263238"/>
<path d="M320.376 271.502C321.415 272.027 322.564 272.3 323.728 272.3C324.893 272.3 326.041 272.027 327.08 271.502C328.936 270.417 328.936 268.692 327.08 267.629C326.042 267.1 324.894 266.823 323.728 266.823C322.563 266.823 321.414 267.1 320.376 267.629C318.521 268.649 318.521 270.428 320.376 271.502Z" fill="#263238"/>
<path d="M315.686 264.754C316.922 264.049 316.857 262.855 315.534 262.096L293.467 249.348C292.757 248.972 291.969 248.767 291.166 248.752C290.363 248.737 289.568 248.912 288.845 249.261C287.608 249.977 287.673 251.171 288.997 251.93L311.064 264.678C311.774 265.053 312.563 265.255 313.366 265.268C314.169 265.282 314.963 265.105 315.686 264.754Z" fill="#263238"/>
<path d="M234.85 248.393C233.266 249.304 233.266 250.78 234.85 251.648L323.053 302.584C323.941 303.033 324.922 303.267 325.917 303.267C326.912 303.267 327.893 303.033 328.781 302.584L348.31 291.334L254.378 237.088L234.85 248.393Z" fill="#EBEBEB"/>
<path d="M235.502 257.235L228.461 253.178C228.167 253.028 227.842 252.95 227.512 252.95C227.182 252.95 226.856 253.028 226.562 253.178L222.125 255.738C221.594 256.042 221.594 256.53 222.125 256.823L222.733 257.181L220.487 258.374C220.227 258.516 220.248 258.602 220.552 258.581L224.501 258.201L229.166 260.891C229.463 261.037 229.79 261.113 230.121 261.113C230.452 261.113 230.778 261.037 231.076 260.891L235.502 258.331C235.613 258.289 235.709 258.214 235.777 258.116C235.844 258.018 235.88 257.902 235.88 257.783C235.88 257.664 235.844 257.548 235.777 257.45C235.709 257.352 235.613 257.277 235.502 257.235Z" fill="#EBEBEB"/>
<path d="M237.575 267.824L237.054 266.739C236.382 265.318 235.969 263.387 237.922 262.27C238.662 261.895 239.48 261.7 240.309 261.7C241.138 261.7 241.956 261.895 242.696 262.27C243.716 262.855 243.943 263.734 243.379 264.439C244.646 264.092 245.996 264.232 247.166 264.83C247.455 264.924 247.708 265.108 247.887 265.354C248.066 265.601 248.163 265.898 248.163 266.202C248.163 266.507 248.066 266.804 247.887 267.051C247.708 267.297 247.455 267.481 247.166 267.575C245.256 268.66 241.915 268.464 239.452 268.085L237.575 267.824Z" fill="#EBEBEB"/>
<path d="M140.911 305.926L229.124 356.862C230.012 357.311 230.994 357.545 231.989 357.545C232.984 357.545 233.965 357.311 234.853 356.862L303.549 317.187C305.122 316.276 305.122 314.801 303.549 313.933L215.335 262.953C214.447 262.504 213.466 262.27 212.471 262.27C211.476 262.27 210.495 262.504 209.607 262.953L140.911 302.628C139.327 303.539 139.327 305.015 140.911 305.926Z" fill="#EBEBEB"/>
<path d="M141.583 311.47L134.509 307.402C134.212 307.256 133.885 307.181 133.555 307.181C133.224 307.181 132.897 307.256 132.6 307.402L128.163 309.962C128.055 310.006 127.963 310.081 127.898 310.178C127.833 310.275 127.798 310.388 127.798 310.505C127.798 310.621 127.833 310.735 127.898 310.832C127.963 310.928 128.055 311.003 128.163 311.047L128.781 311.405L126.535 312.588C126.264 312.729 126.296 312.827 126.535 312.794L130.484 312.425L135.149 315.116C135.447 315.261 135.773 315.337 136.104 315.337C136.435 315.337 136.762 315.261 137.059 315.116L141.496 312.544C141.609 312.512 141.709 312.447 141.784 312.356C141.858 312.266 141.903 312.154 141.912 312.038C141.922 311.921 141.895 311.804 141.836 311.702C141.778 311.601 141.689 311.52 141.583 311.47Z" fill="#EBEBEB"/>
<path d="M143.6 322.048L143.09 320.963C142.406 319.542 142.005 317.611 143.958 316.482C144.696 316.108 145.512 315.913 146.339 315.913C147.167 315.913 147.983 316.108 148.721 316.482C149.806 317.079 149.979 317.958 149.404 318.652C150.675 318.318 152.025 318.457 153.201 319.043C153.49 319.14 153.741 319.325 153.918 319.572C154.096 319.819 154.191 320.116 154.191 320.421C154.191 320.725 154.096 321.022 153.918 321.269C153.741 321.516 153.49 321.701 153.201 321.798C151.292 322.883 147.95 322.688 145.477 322.308L143.6 322.048Z" fill="#EBEBEB"/>
<path d="M115.686 317.187C116.574 316.738 117.555 316.504 118.55 316.504C119.545 316.504 120.526 316.738 121.414 317.187L209.617 368.113C211.201 369.024 211.201 370.511 209.617 371.422L191.619 381.815L97.709 327.57L115.686 317.187Z" fill="#EBEBEB"/>
<path d="M213.708 305.46L163.498 318.945L229.146 356.852C230.034 357.301 231.015 357.535 232.01 357.535C233.005 357.535 233.986 357.301 234.874 356.852L236.295 356.027L264.622 314.464L204.464 326.268L213.708 305.46Z" fill="#E0E0E0"/>
<path d="M238.432 276.297L215.334 262.953C214.446 262.504 213.465 262.27 212.47 262.27C211.475 262.27 210.494 262.504 209.606 262.953L183.785 277.87C184.968 280.116 187.409 282.21 191.108 284.022C201.957 289.208 219.62 289.208 230.501 284.022C235.058 281.852 237.694 279.118 238.432 276.297Z" fill="#E0E0E0"/>
<path opacity="0.2" d="M349.817 271.599L234.035 204.726C233.149 204.277 232.17 204.043 231.177 204.043C230.183 204.043 229.204 204.277 228.318 204.726L77.5158 291.822C75.9427 292.733 75.9427 294.209 77.5158 295.077L101.991 309.181L193.33 361.94C194.216 362.389 195.195 362.623 196.188 362.623C197.182 362.623 198.161 362.389 199.047 361.94L334.791 283.512L349.806 274.832C351.401 273.997 351.401 272.511 349.817 271.599Z" fill="white"/>
<path d="M350.102 271.122L254.37 215.792L234.32 204.248C233.35 203.751 232.275 203.492 231.185 203.492C230.095 203.492 229.02 203.751 228.05 204.248L77.2475 291.345C76.8177 291.51 76.4481 291.802 76.1874 292.181C75.9267 292.561 75.7871 293.011 75.7871 293.471C75.7871 293.932 75.9267 294.381 76.1874 294.761C76.4481 295.141 76.8177 295.432 77.2475 295.598L101.723 309.701L193.094 362.493C194.064 362.992 195.139 363.252 196.229 363.252C197.32 363.252 198.395 362.992 199.365 362.493L335.098 284.065L350.124 275.386C350.552 275.218 350.921 274.925 351.18 274.545C351.44 274.164 351.579 273.714 351.579 273.254C351.579 272.793 351.44 272.344 351.18 271.963C350.921 271.583 350.552 271.29 350.124 271.122H350.102ZM349.548 274.431L334.523 283.11L198.79 361.538C197.986 361.939 197.1 362.148 196.202 362.148C195.304 362.148 194.418 361.939 193.615 361.538L102.276 308.79L77.8116 294.686C77.5503 294.619 77.3186 294.467 77.1532 294.254C76.9877 294.041 76.8979 293.779 76.8979 293.509C76.8979 293.239 76.9877 292.977 77.1532 292.764C77.3186 292.551 77.5503 292.399 77.8116 292.332L228.614 205.236C229.418 204.837 230.304 204.629 231.201 204.629C232.099 204.629 232.985 204.837 233.789 205.236L253.849 216.79L349.581 272.12C349.842 272.187 350.074 272.339 350.24 272.552C350.405 272.765 350.495 273.028 350.495 273.297C350.495 273.567 350.405 273.829 350.24 274.042C350.074 274.256 349.842 274.408 349.581 274.474L349.548 274.431Z" fill="white"/>
<path d="M297.866 0.394783C299.46 -0.527389 300.762 0.221194 300.762 2.06554V215.348C300.706 216.353 300.415 217.332 299.912 218.204C299.409 219.076 298.708 219.819 297.866 220.371L214.631 268.432L204.867 300.979C203.989 303.93 202.231 304.06 200.951 301.251L192.011 281.516L167.709 295.544C166.114 296.466 164.812 295.718 164.812 293.873V80.5912C164.867 79.5852 165.157 78.6062 165.661 77.7335C166.164 76.8607 166.866 76.1189 167.709 75.568L297.866 0.394783Z" fill="#73AFD9"/>
<path d="M287.234 165.04C287.134 166.421 286.71 167.759 285.996 168.945C285.281 170.131 284.296 171.131 283.122 171.864L237.393 198.271C235.126 199.573 233.281 198.651 233.281 196.188C233.384 194.808 233.81 193.471 234.524 192.286C235.238 191.101 236.221 190.1 237.393 189.364L283.144 162.968C285.4 161.655 287.234 162.588 287.234 165.04Z" fill="white"/>
<path d="M278.805 191.414C278.703 192.795 278.278 194.132 277.563 195.317C276.849 196.503 275.866 197.503 274.693 198.238L236.71 220.197C234.443 221.51 232.609 220.577 232.609 218.114C232.709 216.736 233.133 215.401 233.845 214.217C234.558 213.033 235.539 212.034 236.71 211.301L274.736 189.342C277.004 188.029 278.805 188.962 278.805 191.414Z" fill="white"/>
<path d="M210.293 228.931L210.196 227.65C208.123 232.88 204.999 236.633 201.516 238.64C195.365 242.199 189.864 239.042 189.864 229.625C189.864 220.75 194.204 211.019 200.963 207.146C205.4 204.585 208.427 206.473 208.926 207.59V205.421C208.926 204.216 210.152 202.535 211.649 201.667C213.147 200.799 214.383 201.591 214.383 203.446V223.571C214.383 226.131 215.338 226.652 216.694 225.86C219.168 224.439 221.446 218.353 221.446 211.42C221.446 198.032 214.427 191.794 203.23 198.26C192.739 204.314 184.418 219.611 184.418 232.977C184.418 246.094 192.284 251.095 202.58 245.161C205.536 243.324 208.156 240.994 210.326 238.272C211.498 236.84 212.778 236.406 213.342 237.425C213.906 238.445 213.559 240.55 212.398 241.982C209.653 245.426 206.353 248.389 202.634 250.748C189.821 258.136 180.133 251.692 180.133 235.483C180.133 218.928 190.277 200.365 203.285 192.847C216.293 185.328 225.829 192.011 225.829 208.762C225.829 218.917 221.848 227.813 216.195 231.068C213.071 232.782 210.847 232.381 210.293 228.931ZM195.766 225.882C195.766 231.068 198.283 233.91 202.124 231.697C205.964 229.484 208.633 223.799 208.633 218.559C208.633 213.514 206.062 210.964 202.07 213.264C198.283 215.413 195.766 220.913 195.766 225.882Z" fill="white"/>
<path d="M232.761 69.0255C255.23 56.0066 273.434 66.5736 273.434 92.5138C273.434 118.454 255.23 150.014 232.761 162.968C210.293 175.921 192.088 165.42 192.088 139.479C192.088 113.539 210.293 82.0444 232.761 69.0255Z" fill="white"/>
<path d="M232.761 69.0255C255.23 56.0066 273.434 66.5736 273.434 92.5138C273.434 118.454 255.23 150.014 232.761 162.968C210.293 175.921 192.088 165.42 192.088 139.479C192.088 113.539 210.293 82.0444 232.761 69.0255Z" fill="#F5F5F5"/>
<path d="M217.93 103.471C216.066 103.793 214.401 104.828 213.286 106.357C211.29 108.928 211.702 112.595 213.286 120.851L219.46 119.907L217.93 103.471Z" fill="#263238"/>
<path d="M253.903 91.3204C255.289 90.95 256.598 90.3326 257.765 89.4977C259.664 87.9029 260.152 89.9317 259.11 92.0798C258.42 93.6111 257.432 94.9902 256.205 96.1374C254.978 97.2845 253.535 98.1769 251.961 98.7628C251.896 98.5024 250.182 94.4232 250.182 94.4232L253.903 91.3204Z" fill="#263238"/>
<path d="M221.477 146.053C221.477 146.053 209.977 153.474 207.481 156.089C204.986 158.703 203.955 166.851 203.033 176.821C203.033 176.821 216.128 182.344 236.665 172.178C257.203 162.012 259.058 153.973 259.058 153.973C259.058 153.973 256.4 141.898 255.413 138.546C254.165 134.304 251.756 131.244 237.75 137.602L221.477 146.053Z" fill="#263238"/>
<path d="M220.827 119.549C219.905 120.341 218.603 118.931 217.475 118.052C216.347 117.173 212.658 116.544 210.814 120.916C208.969 125.288 213.2 129.476 215.696 130.55C216.549 130.909 217.489 131.012 218.4 130.846C219.311 130.681 220.155 130.254 220.827 129.617L221.478 146.053C221.478 146.053 224.733 151.684 233.629 150.512C242.525 149.341 240.67 140.401 237.763 137.602V134.217C237.763 134.217 242.352 133.913 244.511 132.763C245.672 132.145 248.427 128.066 250.207 123.856C253.875 116.102 254.712 107.308 252.572 99.001C249.393 86.3293 234.866 89.8118 226.208 97.5798C217.551 105.348 220.827 119.549 220.827 119.549Z" fill="#FFA8A7"/>
<path d="M256.411 78.6049C255.63 76.0445 255.153 76.5002 248.871 80.9157C244.073 84.2937 238.719 86.8018 233.053 88.3257C228.627 89.6709 222.573 90.7341 219.459 94.8351C218.12 96.5988 217.437 98.7739 217.528 100.987C217.264 100.742 216.944 100.567 216.595 100.477C215.065 100.064 213.188 101.182 212.396 102.983L217.821 104.426C217.398 107.55 216.183 117.195 217.506 118.041C218.646 118.768 220.392 121.209 220.859 121.079C222.41 120.634 223.029 113.756 223.875 109.59C224.797 104.849 225.155 103.08 226.858 102.885C232.39 102.013 237.836 100.659 243.132 98.8384C248.99 96.5493 250.672 94.6073 250.672 94.6073L253.797 92.6219C255.191 90.5996 256.145 88.3065 256.595 85.8916C257.046 83.4767 256.983 80.994 256.411 78.6049Z" fill="#263238"/>
<path d="M237.739 134.218C237.739 134.218 229.526 134.771 226.662 134.011C225.012 133.618 223.585 132.589 222.691 131.147C223.097 132.656 223.873 134.039 224.948 135.172C227.042 137.342 237.739 136.409 237.739 136.409V134.218Z" fill="#F28F8F"/>
<path d="M235.644 124.681L239.398 125.083C239.243 125.64 238.91 126.13 238.45 126.479C237.989 126.828 237.426 127.016 236.849 127.014C235.807 126.905 235.275 125.864 235.644 124.681Z" fill="#F28F8F"/>
<path d="M241.07 110.034L241.613 119.788L246.788 116.652L241.07 110.034Z" fill="#F28F8F"/>
<path d="M235.763 113.506C235.753 113.994 235.589 114.466 235.295 114.856C235.001 115.245 234.591 115.532 234.125 115.676C233.93 115.743 233.721 115.76 233.518 115.727C233.315 115.693 233.123 115.61 232.959 115.484C232.796 115.359 232.666 115.194 232.582 115.006C232.498 114.818 232.461 114.612 232.476 114.407C232.489 113.918 232.655 113.445 232.951 113.056C233.246 112.666 233.657 112.38 234.125 112.237C234.319 112.169 234.528 112.151 234.731 112.185C234.934 112.218 235.125 112.302 235.288 112.428C235.451 112.554 235.579 112.718 235.662 112.907C235.745 113.095 235.78 113.301 235.763 113.506Z" fill="#263238"/>
<path d="M234.016 107.745L230.501 110.631C230.273 110.108 230.231 109.523 230.381 108.973C230.531 108.422 230.864 107.94 231.326 107.604C231.499 107.413 231.712 107.262 231.951 107.164C232.189 107.065 232.447 107.021 232.704 107.035C232.962 107.048 233.214 107.119 233.441 107.242C233.667 107.365 233.864 107.537 234.016 107.745Z" fill="#263238"/>
<path d="M250.444 104.708L247.189 103.102C247.434 102.6 247.853 102.204 248.367 101.986C248.882 101.769 249.458 101.745 249.989 101.92C250.21 102.066 250.399 102.256 250.544 102.479C250.688 102.701 250.785 102.952 250.828 103.214C250.871 103.476 250.859 103.744 250.793 104.001C250.727 104.258 250.608 104.499 250.444 104.708Z" fill="#263238"/>
<path d="M249.511 109.351C249.498 109.838 249.333 110.309 249.039 110.698C248.745 111.087 248.338 111.375 247.873 111.521C247.678 111.588 247.469 111.606 247.266 111.572C247.063 111.539 246.871 111.455 246.707 111.33C246.544 111.204 246.414 111.04 246.33 110.852C246.246 110.664 246.209 110.457 246.224 110.252C246.237 109.763 246.403 109.29 246.699 108.901C246.994 108.512 247.405 108.225 247.873 108.082C248.067 108.015 248.276 107.997 248.479 108.03C248.682 108.063 248.873 108.147 249.036 108.273C249.199 108.399 249.327 108.564 249.41 108.752C249.493 108.94 249.528 109.146 249.511 109.351Z" fill="#263238"/>
</svg>
