<svg width="20" height="20" viewBox="0 0 20 20" fill="none" xmlns="http://www.w3.org/2000/svg">
<g clip-path="url(#clip0_97_515)">
<path fill-rule="evenodd" clip-rule="evenodd" d="M10 6.10352e-05C4.475 6.10352e-05 0 4.47506 0 10.0001C0 14.4251 2.8625 18.1626 6.8375 19.4876C7.3375 19.5751 7.525 19.2751 7.525 19.0126C7.525 18.7751 7.5125 17.9876 7.5125 17.1501C5 17.6126 4.35 16.5376 4.15 15.9751C4.0375 15.6876 3.55 14.8001 3.125 14.5626C2.775 14.3751 2.275 13.9126 3.1125 13.9001C3.9 13.8876 4.4625 14.6251 4.65 14.9251C5.55 16.4376 6.9875 16.0126 7.5625 15.7501C7.65 15.1001 7.9125 14.6626 8.2 14.4126C5.975 14.1626 3.65 13.3001 3.65 9.47506C3.65 8.38756 4.0375 7.48756 4.675 6.78756C4.575 6.53756 4.225 5.51256 4.775 4.13756C4.775 4.13756 5.6125 3.87506 7.525 5.16256C8.325 4.93756 9.175 4.82506 10.025 4.82506C10.875 4.82506 11.725 4.93756 12.525 5.16256C14.4375 3.86256 15.275 4.13756 15.275 4.13756C15.825 5.51256 15.475 6.53756 15.375 6.78756C16.0125 7.48756 16.4 8.37506 16.4 9.47506C16.4 13.3126 14.0625 14.1626 11.8375 14.4126C12.2 14.7251 12.5125 15.3251 12.5125 16.2626C12.5125 17.6001 12.5 18.6751 12.5 19.0126C12.5 19.2751 12.6875 19.5876 13.1875 19.4876C15.1726 18.8173 16.8976 17.5415 18.1197 15.8395C19.3418 14.1376 19.9994 12.0953 20 10.0001C20 4.47506 15.525 6.10352e-05 10 6.10352e-05Z" fill="#F9D081"/>
</g>
<defs>
<clipPath id="clip0_97_515">
<rect width="20" height="20" fill="white"/>
</clipPath>
</defs>
</svg>
