<svg width="33" height="32" viewBox="0 0 33 32" fill="none" xmlns="http://www.w3.org/2000/svg">
<path d="M19.2691 17.1188C18.6448 17.1188 18.1387 17.8086 18.1387 18.6565C18.1387 19.506 18.6448 20.1958 19.2691 20.1958C19.8935 20.1958 20.3996 19.506 20.3996 18.6565C20.3987 17.8086 19.8935 17.1188 19.2691 17.1188ZM23.2048 13.1163C23.3343 12.8043 23.3396 11.0317 22.6526 9.33337C22.6526 9.33337 21.0778 9.50346 18.6952 11.1112C18.1952 10.9744 17.3491 10.9077 16.5048 10.9077C15.6587 10.9077 14.8135 10.9744 14.3135 11.1112C11.93 9.50346 10.3552 9.33337 10.3552 9.33337C9.66912 11.0317 9.67608 12.8043 9.80391 13.1163C8.99695 13.9778 8.50391 15.0129 8.50391 16.4248C8.50391 22.5667 13.6891 22.665 14.9969 22.665L16.5048 22.6667L18.0109 22.665C19.3204 22.665 24.5039 22.5667 24.5039 16.4248C24.5039 15.0129 24.0117 13.9778 23.2048 13.1163V13.1163ZM16.5283 21.9103H16.4796C13.2004 21.9103 10.6456 21.5265 10.6456 18.3932C10.6456 17.6419 10.9152 16.9462 11.5561 16.3684C12.623 15.4052 14.43 15.9146 16.4796 15.9146H16.5283C18.5778 15.9146 20.3856 15.4052 21.4535 16.3684C22.0926 16.9462 22.3622 17.6419 22.3622 18.3932C22.3622 21.5265 19.8083 21.9103 16.5283 21.9103ZM13.7396 17.1188C13.1152 17.1188 12.6091 17.8086 12.6091 18.6565C12.6091 19.506 13.1152 20.1958 13.7396 20.1958C14.3648 20.1958 14.8709 19.506 14.8709 18.6565C14.8709 17.8086 14.3648 17.1188 13.7396 17.1188V17.1188Z" fill="#F9D081"/>
<circle cx="16.5039" cy="16" r="15.5" stroke="#F9D081"/>
</svg>
