<svg width="68" height="28" viewBox="0 0 68 28" fill="none" xmlns="http://www.w3.org/2000/svg">
<path d="M0.558594 0.417969H11.0664V13.7188H14.875V0.417969H25.3828V26.9609H14.875V16.668H11.0664V26.9609H0.558594V0.417969ZM44.7383 0.417969H46.4961C51.2878 0.417969 54.1458 2.03906 55.0703 5.28125C55.3828 6.34896 55.5391 7.57292 55.5391 8.95312V27H44.7383V0.417969ZM30.3242 8.95312C30.3242 6.07552 30.9818 3.96615 32.2969 2.625C33.7422 1.15365 36.099 0.417969 39.3672 0.417969H41.125V27H30.3242V8.95312Z" fill="white"/>
<path d="M63.1953 27.1875C62.6797 27.1875 62.1875 27.0938 61.7188 26.9062C61.25 26.7031 60.8438 26.4297 60.5 26.0859C60.1562 25.7422 59.8828 25.3359 59.6797 24.8672C59.4922 24.3984 59.3984 23.9062 59.3984 23.3906C59.3984 22.875 59.4922 22.3828 59.6797 21.9141C59.8828 21.4453 60.1562 21.0391 60.5 20.6953C60.8438 20.3516 61.25 20.0781 61.7188 19.875C62.1875 19.6719 62.6797 19.5703 63.1953 19.5703C63.7109 19.5703 64.2031 19.6719 64.6719 19.875C65.1406 20.0781 65.5547 20.3516 65.9141 20.6953C66.2734 21.0391 66.5469 21.4453 66.7344 21.9141C66.9375 22.3828 67.0391 22.875 67.0391 23.3906C67.0391 23.9062 66.9375 24.3984 66.7344 24.8672C66.5469 25.3359 66.2734 25.7422 65.9141 26.0859C65.5547 26.4297 65.1406 26.7031 64.6719 26.9062C64.2031 27.0938 63.7109 27.1875 63.1953 27.1875Z" fill="#F9D081"/>
</svg>
