<svg width="33" height="32" viewBox="0 0 33 32" fill="none" xmlns="http://www.w3.org/2000/svg">
<path d="M11.8422 9.93341C11.8422 10.8538 11.2032 11.6459 10.0413 11.6459C8.94779 11.6459 8.24219 10.8989 8.24219 9.97847C8.24219 9.03381 8.92619 8.20007 10.0422 8.20007C11.1582 8.20007 11.8206 8.98874 11.8422 9.93341ZM8.24219 23.8001V12.5334H11.8422V23.8001H8.24219ZM13.6422 16.3849C13.6422 15.0459 13.5963 13.927 13.5504 12.9607H16.785L16.9452 14.4539H17.0136C17.469 13.7511 18.585 12.7206 20.4534 12.7206C22.7322 12.7206 24.4422 14.1896 24.4422 17.3503V23.8001H20.8422V17.8539C20.8422 16.4724 20.2959 15.4185 19.0422 15.4185C18.0864 15.4185 17.6076 16.1639 17.3565 16.7783C17.2647 16.9985 17.2422 17.3053 17.2422 17.6129V23.8001H13.6422V16.3849Z" fill="#F9D081"/>
<circle cx="16.0078" cy="16" r="15.5" stroke="#F9D081"/>
</svg>
