<svg width="20" height="20" viewBox="0 0 20 20" fill="none" xmlns="http://www.w3.org/2000/svg">
<path d="M11.2869 8.71339C10.6043 8.03109 9.67871 7.6478 8.71358 7.6478C7.74846 7.6478 6.82284 8.03109 6.14025 8.71339L3.56608 11.2867C2.88348 11.9693 2.5 12.8951 2.5 13.8605C2.5 14.8258 2.88348 15.7516 3.56608 16.4342C4.24868 17.1168 5.17449 17.5003 6.13983 17.5003C7.10518 17.5003 8.03098 17.1168 8.71358 16.4342L10.0002 15.1476" stroke="#F9D081" stroke-width="1.66667" stroke-linecap="round" stroke-linejoin="round"/>
<path d="M8.71289 11.2867C9.39548 11.969 10.3211 12.3523 11.2862 12.3523C12.2513 12.3523 13.177 11.969 13.8596 11.2867L16.4337 8.7134C17.1163 8.0308 17.4998 7.10499 17.4998 6.13965C17.4998 5.17431 17.1163 4.2485 16.4337 3.5659C15.7511 2.8833 14.8253 2.49982 13.86 2.49982C12.8946 2.49982 11.9688 2.8833 11.2862 3.5659L9.99956 4.85257" stroke="#F9D081" stroke-width="1.66667" stroke-linecap="round" stroke-linejoin="round"/>
</svg>
