<svg width="32" height="32" viewBox="0 0 32 32" fill="none" xmlns="http://www.w3.org/2000/svg">
<circle cx="16" cy="16" r="15.5" stroke="#F9D081"/>
<g clip-path="url(#clip0_701_33)">
<path d="M23.0189 21.3515L24.33 22.6174V22.6594H17.6796V22.6174L19.0146 21.3515C19.157 21.2343 19.2252 21.0482 19.1925 20.8655V12.7732C19.1925 12.4312 19.1925 11.9689 19.252 11.5736L14.766 22.8213H14.7127L10.0674 12.4731L9.87164 12.0231V18.8083C9.81598 19.2622 9.89222 19.7224 10.0912 20.1341L11.9602 22.6177V22.6597H7V22.6177L8.86893 20.1281C9.0666 19.7187 9.13971 19.2605 9.08826 18.8083V11.3093C9.11859 10.94 9.00838 10.5728 8.77957 10.2836L7.45681 8.54978V8.50781H12.2031L16.1781 17.2725L19.6785 8.50781H24.324V8.54978L23.0189 10.0196C22.8624 10.1352 22.7844 10.3304 22.8171 10.5232V20.8655C22.8 20.9573 22.81 21.0522 22.8458 21.1384C22.8816 21.2247 22.9418 21.2988 23.0189 21.3515Z" fill="#F9D081"/>
</g>
<defs>
<clipPath id="clip0_701_33">
<rect width="17.33" height="17.33" fill="white" transform="translate(7 7)"/>
</clipPath>
</defs>
</svg>
